<svg width="15" height="14" viewBox="0 0 15 14" fill="none" xmlns="http://www.w3.org/2000/svg">
<g id="&#240;&#159;&#166;&#134; icon &#34;File Signature&#34;" opacity="0.75">
<path id="Vector" d="M5.68149 11.0453C5.60466 10.8911 5.47081 10.8755 5.41664 10.8755C5.36248 10.8755 5.22862 10.8908 5.15571 11.0367L4.95597 11.4361C4.79008 11.769 4.30415 11.7322 4.18826 11.3817L3.74998 10.0674L3.47368 10.8976C3.3203 11.3575 2.89087 11.6666 2.40598 11.6666H2.08332C1.85312 11.6666 1.66666 11.4802 1.66666 11.25C1.66666 11.0197 1.85312 10.8333 2.08332 10.8333H2.40598C2.53176 10.8333 2.64322 10.7531 2.68306 10.6338L3.15676 9.2109C3.24269 8.95543 3.48071 8.78356 3.74998 8.78356C4.01925 8.78356 4.25727 8.95517 4.34295 9.2109L4.70441 10.2953C5.21873 9.87365 6.11221 10.0427 6.42315 10.664C6.47237 10.7625 6.56612 10.819 6.6669 10.827V8.6885L10.0002 5.37888V4.16665H6.45831C6.11456 4.16665 5.83331 3.8854 5.83331 3.54165V0H0.624997C0.278645 0 0 0.278645 0 0.624997V12.7083C0 13.0546 0.278645 13.3333 0.624997 13.3333H9.37496C9.72131 13.3333 9.99996 13.0546 9.99996 12.7083V11.6666L6.66664 11.6638C6.24685 11.6557 5.87029 11.4221 5.68149 11.0453ZM9.99996 3.17447C9.99996 3.0104 9.93485 2.85155 9.81767 2.73436L7.2682 0.182291C7.15101 0.0651039 6.99216 0 6.82549 0H6.66664V3.33332H9.99996V3.17447ZM7.49997 9.03538V10.8333H9.29657L13.507 6.59424L11.7393 4.82654L7.49997 9.03538ZM14.8057 4.35753L13.9757 3.52759C13.7169 3.26874 13.2968 3.26874 13.038 3.52759L12.3283 4.23722L14.096 6.00492L14.8057 5.29529C15.0648 5.03644 15.0648 4.61639 14.8057 4.35753Z" fill="#EFEFEF"/>
</g>
</svg>
