<svg width="20" height="18" viewBox="0 0 20 18" fill="none" xmlns="http://www.w3.org/2000/svg">
<g id="&#240;&#159;&#166;&#134; icon &#34;File Signature&#34;">
<path id="Vector" d="M7.57531 14.727C7.47288 14.5215 7.29441 14.5006 7.22219 14.5006C7.14997 14.5006 6.9715 14.5211 6.87428 14.7156L6.60796 15.2482C6.38678 15.6919 5.73886 15.643 5.58435 15.1756L4.99998 13.4232L4.63158 14.5301C4.42706 15.1433 3.8545 15.5555 3.20797 15.5555H2.77777C2.47082 15.5555 2.22221 15.3069 2.22221 14.9999C2.22221 14.693 2.47082 14.4444 2.77777 14.4444H3.20797C3.37568 14.4444 3.52429 14.3374 3.57741 14.1784L4.20901 12.2812C4.32359 11.9406 4.64095 11.7114 4.99998 11.7114C5.359 11.7114 5.67636 11.9402 5.7906 12.2812L6.27254 13.727C6.9583 13.1649 8.14962 13.3902 8.5642 14.2187C8.62982 14.3499 8.75482 14.4253 8.8892 14.436V11.5847L13.3336 7.17184V5.55553H8.61107C8.15274 5.55553 7.77774 5.18053 7.77774 4.7222V0H0.83333C0.371526 0 0 0.371526 0 0.83333V16.9444C0 17.4062 0.371526 17.7777 0.83333 17.7777H12.4999C12.9617 17.7777 13.3333 17.4062 13.3333 16.9444V15.5555L8.88885 15.5517C8.32913 15.5409 7.82705 15.2294 7.57531 14.727ZM13.3333 4.23262C13.3333 4.01387 13.2465 3.80207 13.0902 3.64582L9.69093 0.243054C9.53468 0.0868052 9.32288 0 9.10065 0H8.88885V4.44443H13.3333V4.23262ZM9.99996 12.0472V14.4444H12.3954L18.0093 8.79232L15.6524 6.43539L9.99996 12.0472ZM19.7409 5.81004L18.6343 4.70345C18.2892 4.35831 17.7291 4.35831 17.384 4.70345L16.4378 5.64963L18.7947 8.00656L19.7409 7.06039C20.0864 6.71525 20.0864 6.15518 19.7409 5.81004Z" fill="#FBFBFB"/>
</g>
</svg>
