<svg width="60" height="52" viewBox="0 0 60 52" fill="none" xmlns="http://www.w3.org/2000/svg">
<g id="Upload Image vector">
<path id="Vector" d="M60 10.8605H17.5552V37.6128H60V10.8605Z" fill="#792D75"/>
<path id="Vector_2" d="M59.2857 5.12816H0.136919C0.100605 5.12816 0.0657817 5.11315 0.0401045 5.08644C0.0144273 5.05972 0 5.02349 0 4.98571C0 4.94793 0.0144273 4.9117 0.0401045 4.88498C0.0657817 4.85827 0.100605 4.84326 0.136919 4.84326H59.2857C59.322 4.84326 59.3569 4.85827 59.3826 4.88498C59.4082 4.9117 59.4227 4.94793 59.4227 4.98571C59.4227 5.02349 59.4082 5.05972 59.3826 5.08644C59.3569 5.11315 59.322 5.12816 59.2857 5.12816Z" fill="#CACACA"/>
<path id="Vector_3" d="M3.21869 3.13385C4.05049 3.13385 4.72479 2.43232 4.72479 1.56693C4.72479 0.701537 4.05049 0 3.21869 0C2.38689 0 1.71259 0.701537 1.71259 1.56693C1.71259 2.43232 2.38689 3.13385 3.21869 3.13385Z" fill="#3F3D56"/>
<path id="Vector_4" d="M8.4216 3.13385C9.2534 3.13385 9.92771 2.43232 9.92771 1.56693C9.92771 0.701537 9.2534 0 8.4216 0C7.5898 0 6.9155 0.701537 6.9155 1.56693C6.9155 2.43232 7.5898 3.13385 8.4216 3.13385Z" fill="#3F3D56"/>
<path id="Vector_5" d="M13.6245 3.13385C14.4562 3.13385 15.1306 2.43232 15.1306 1.56693C15.1306 0.701537 14.4562 0 13.6245 0C12.7927 0 12.1183 0.701537 12.1183 1.56693C12.1183 2.43232 12.7927 3.13385 13.6245 3.13385Z" fill="#3F3D56"/>
<path id="Vector_6" d="M41.7917 23.9105L39.208 21.1402C39.1517 21.0811 39.0843 21.0346 39.01 21.0035C38.9357 20.9725 38.8562 20.9576 38.7761 20.9597H38.7684C38.6884 20.9576 38.6088 20.9725 38.5345 21.0035C38.4603 21.0346 38.3929 21.0811 38.3365 21.1402L35.7528 23.9105C35.6424 24.0179 35.5775 24.1666 35.5724 24.3238C35.5673 24.4811 35.6225 24.634 35.7258 24.7489C35.7345 24.7586 35.7435 24.768 35.7528 24.7771C35.871 24.8921 36.0268 24.9561 36.1886 24.9561C36.3504 24.9561 36.5062 24.8921 36.6244 24.7771L38.1553 23.1121V27.4049C38.1624 27.5702 38.2305 27.7262 38.3454 27.8406C38.4604 27.9549 38.6133 28.0188 38.7723 28.0188C38.9313 28.0188 39.0842 27.9549 39.1991 27.8406C39.3141 27.7262 39.3822 27.5702 39.3893 27.4049V23.1121L40.9202 24.7771C41.0384 24.8921 41.1941 24.9561 41.356 24.9561C41.5178 24.9561 41.6736 24.8921 41.7917 24.7771C41.9022 24.6696 41.9671 24.5209 41.9722 24.3637C41.9772 24.2065 41.9221 24.0536 41.8188 23.9386C41.8101 23.9289 41.8011 23.9196 41.7917 23.9105Z" fill="white"/>
<path id="Vector_7" d="M38.7776 30.8374C37.5784 30.8374 36.406 30.4674 35.4089 29.7742C34.4118 29.0811 33.6346 28.0958 33.1756 26.9431C32.7167 25.7904 32.5966 24.522 32.8306 23.2983C33.0646 22.0746 33.6421 20.9505 34.4901 20.0683C35.3381 19.186 36.4185 18.5852 37.5947 18.3418C38.7709 18.0984 39.9901 18.2233 41.098 18.7008C42.206 19.1783 43.153 19.9868 43.8193 21.0242C44.4855 22.0616 44.8412 23.2813 44.8412 24.529C44.8393 26.2015 44.1999 27.805 43.0632 28.9876C41.9264 30.1703 40.3852 30.8355 38.7776 30.8374ZM38.7776 18.4542C37.6228 18.4542 36.4939 18.8105 35.5337 19.478C34.5735 20.1455 33.8251 21.0943 33.3831 22.2043C32.9412 23.3143 32.8256 24.5357 33.0509 25.7141C33.2762 26.8925 33.8323 27.9749 34.6489 28.8245C35.4654 29.6741 36.5058 30.2526 37.6385 30.487C38.7711 30.7214 39.9452 30.6011 41.0121 30.1413C42.079 29.6816 42.9909 28.9029 43.6325 27.9039C44.2741 26.905 44.6166 25.7305 44.6166 24.529C44.6148 22.9184 43.9991 21.3743 42.9045 20.2355C41.8098 19.0967 40.3257 18.4561 38.7776 18.4542Z" fill="white"/>
<path id="Path 138" d="M42.1511 51.9024H2.50859C2.10341 51.9013 1.77499 51.2025 1.77448 50.3397V29.4063C1.77448 28.5437 2.10341 27.8451 2.50859 27.8436H42.1511C42.5562 27.8447 42.8847 28.5435 42.8852 29.4063V50.3395C42.8847 51.2021 42.5557 51.9013 42.1511 51.9024Z" fill="white"/>
<g id="Group 38">
<path id="Ellipse 7" d="M15.2576 39.7383C17.1721 39.7383 18.7241 38.1236 18.7241 36.1318C18.7241 34.14 17.1721 32.5253 15.2576 32.5253C13.3431 32.5253 11.7911 34.14 11.7911 36.1318C11.7911 38.1236 13.3431 39.7383 15.2576 39.7383Z" fill="#3F3D56"/>
<path id="Path 63" d="M26.1283 47.2452H9.12268C9.10141 47.2455 9.08016 47.2437 9.0592 47.2399L17.1024 32.7461C17.1515 32.6558 17.2227 32.5807 17.3088 32.5284C17.3949 32.4762 17.4928 32.4486 17.5925 32.4486C17.6922 32.4486 17.7901 32.4762 17.8763 32.5284C17.9624 32.5807 18.0336 32.6558 18.0827 32.7461L23.4804 42.4726L23.7391 42.938L26.1283 47.2452Z" fill="#792D75"/>
<path id="Path 65" d="M35.5964 47.2456H20.8879L23.7379 42.9387L23.943 42.6284L27.6571 37.0154C27.7228 36.9295 27.8051 36.859 27.8987 36.8084C27.9923 36.7578 28.0951 36.7283 28.2004 36.7217C28.3057 36.7152 28.4111 36.7318 28.5099 36.7705C28.6086 36.8091 28.6984 36.869 28.7734 36.9461C28.7926 36.968 28.8105 36.9911 28.8269 37.0154L35.5964 47.2456Z" fill="#792D75"/>
</g>
<path id="Path 138_2" d="M42.1511 51.9024H2.50859C2.10341 51.9013 1.77499 51.2025 1.77448 50.3397V29.4063C1.77448 28.5437 2.10341 27.8451 2.50859 27.8436H42.1511C42.5562 27.8447 42.8847 28.5435 42.8852 29.4063V50.3395C42.8847 51.2021 42.5557 51.9013 42.1511 51.9024ZM2.50859 28.4687C2.26538 28.4687 2.0684 28.8888 2.06805 29.4063V50.3395C2.06805 50.857 2.26537 51.2766 2.50859 51.2771H42.1511C42.3943 51.2771 42.5913 50.8572 42.5916 50.3395V29.4063C42.5916 28.8888 42.3943 28.4692 42.1511 28.4687L2.50859 28.4687Z" fill="#E6E6E6"/>
</g>
</svg>
